<?xml version="1.0" encoding="utf-8"?>
<!-- Generator: Adobe Illustrator 22.1.0, SVG Export Plug-In . SVG Version: 6.00 Build 0)  -->
<svg version="1.1" id="Layer_1" xmlns="http://www.w3.org/2000/svg" xmlns:xlink="http://www.w3.org/1999/xlink" x="0px" y="0px"
	 viewBox="0 0 233.3 67.7" style="enable-background:new 0 0 233.3 67.7;" xml:space="preserve">
<style type="text/css">
	.st0{fill:none;stroke:#FF675D;stroke-width:2.7484;stroke-linecap:round;stroke-miterlimit:10;}
	.st1{fill:#FF675D;}
</style>
<g>
	<path class="st0" d="M80.8,19.9c0,21.9-17.8,39.7-39.7,39.7S1.4,41.8,1.4,19.9s17.8-6.8,39.7-6.8S80.8-2.1,80.8,19.9z"/>
	<g>
		<path class="st1" d="M108.2,30c-3.7,0-5.1-1.3-5.8-1.8l-2.2,2.1l-1-0.4c0.1-1.4,0.2-3.9,0.2-6.4V7.3c0-0.7-0.4-1.6-0.9-2
			c-0.4-0.3-1.7-0.5-2.3-0.5V3.8l8.1-0.4l0.2,0.2V15h0.1c0.8-0.9,2.6-2.2,4.7-2.2c4.1,0,7.1,3.3,7.1,8.7
			C116.4,26.4,112.8,30,108.2,30z M107.2,15c-1.3,0-2.1,0.5-2.8,1.5v9.7c0.3,1.1,1.1,2.6,2.9,2.6c2,0,3.5-2.6,3.5-7.1
			C110.8,18.3,109.9,15,107.2,15z"/>
		<path class="st1" d="M118,29.5v-1.1c0.6,0,1-0.1,1.5-0.2c0.7-0.2,0.9-0.8,0.9-1.5V7.4c0-0.8-0.4-1.6-0.9-2
			c-0.4-0.3-1.9-0.6-2.5-0.6V3.8l8.2-0.4l0.2,0.2v22.8c0,0.8,0.3,1.3,0.9,1.6c0.5,0.2,0.9,0.4,1.5,0.4v1.1H118z"/>
		<path class="st1" d="M138.2,30c-6.1,0-8.8-3.9-8.8-8.7c0-4.4,3.1-8.5,8.4-8.5c5.5,0,7.5,3.2,7.5,6.9v1h-10.6c0,4.6,1.6,7,5.2,7
			c2.1,0,3.5-1.1,4.7-3l1.2,0.8C144.4,28,141.6,30,138.2,30z M137.6,14.1c-1.6,0-2.8,1.8-2.9,5.4l5.3-0.1
			C140.1,16.6,139.7,14.1,137.6,14.1z"/>
		<path class="st1" d="M154,30c-2.2,0-4.2-0.9-4.9-1.5l-0.5,1.1h-1.2l-0.2-6h1c0.6,2,2.8,5,5.5,5c1.8,0,2.8-0.9,2.8-2.6
			c0-1.8-1.6-2.3-4.1-3.2c-2.2-0.7-4.8-2-4.8-5.3c0-2.7,2.3-5,6.3-5c1.6,0,3.3,0.5,4.3,1l0.4-1h1.1l0.2,5.5h-1
			c-0.7-2.2-2.5-4.1-4.5-4.1c-1.5,0-2.5,0.9-2.5,2.1c0,1.8,1.3,2.2,4,3c2.8,0.9,4.8,2.4,4.8,5.3C160.9,28.1,157.9,30,154,30z"/>
		<path class="st1" d="M169.6,30c-2.2,0-4.2-0.9-4.9-1.5l-0.5,1.1H163l-0.2-6h1c0.6,2,2.8,5,5.5,5c1.8,0,2.8-0.9,2.8-2.6
			c0-1.8-1.6-2.3-4.1-3.2c-2.2-0.7-4.8-2-4.8-5.3c0-2.7,2.3-5,6.3-5c1.6,0,3.3,0.5,4.3,1l0.4-1h1.1l0.2,5.5h-1
			c-0.7-2.2-2.5-4.1-4.5-4.1c-1.5,0-2.5,0.9-2.5,2.1c0,1.8,1.3,2.2,4,3c2.8,0.9,4.8,2.4,4.8,5.3C176.5,28.1,173.4,30,169.6,30z"/>
		<path class="st1" d="M104.8,59.9c-3.4,0-5-1.8-5-5v-10h-3v-1.6h3.1v-5h4.9v5h4.6v1.6h-4.6v9.5c0,2,0.3,3.2,2.1,3.2
			c1.2,0,1.6-1.3,1.7-2.8h1.3C109.8,57.6,108.6,59.9,104.8,59.9z"/>
		<path class="st1" d="M121.4,59.5v-1.1c0.5,0,0.9-0.1,1.3-0.2c0.5-0.2,0.6-0.8,0.6-1.5v-7.8c0-2.3-1-3.6-2.1-3.6
			c-2,0-3.1,1.4-3.4,2.2v9c0,0.8,0.2,1.3,0.7,1.5c0.4,0.2,0.8,0.4,1.3,0.4v1.1h-9.5v-1.1c0.6,0,1-0.1,1.5-0.2
			c0.7-0.2,0.9-0.8,0.9-1.5V37.3c0-0.7-0.4-1.6-0.9-2c-0.4-0.3-1.8-0.5-2.4-0.5v-1.1l8.1-0.4l0.2,0.2v12h0.1
			c1.3-1.3,2.7-2.9,5.7-2.9c3.3,0,4.8,2.2,4.8,5.5v8.2c0,0.8,0.2,1.3,0.8,1.5c0.5,0.2,0.9,0.4,1.5,0.4v1.1H121.4z"/>
		<path class="st1" d="M141.1,60c-6.1,0-8.8-3.9-8.8-8.7c0-4.4,3.1-8.5,8.4-8.5c5.5,0,7.5,3.2,7.5,6.9v1h-10.6c0,4.6,1.6,7,5.2,7
			c2.1,0,3.5-1.1,4.7-3l1.2,0.8C147.2,58,144.4,60,141.1,60z M140.5,44.1c-1.6,0-2.8,1.8-2.9,5.4l5.3-0.1
			C142.9,46.6,142.5,44.1,140.5,44.1z"/>
		<path class="st1" d="M162.7,49.2c-1.4,0-2.6-0.7-2.6-2.2c0-0.8,0.2-1.5,0.3-1.7c-1.6,0-2.7,1.3-3,1.8v9.3c0,0.8,0.3,1.3,1,1.5
			c0.6,0.2,1.8,0.4,2.3,0.4v1.1H150v-1.1c0.6,0,1.1-0.1,1.5-0.2c0.7-0.2,0.9-0.8,0.9-1.5v-9.8c-0.1-0.7-0.4-1.5-0.9-1.9
			c-0.4-0.3-1.1-0.5-1.8-0.5v-1.1l7.5-0.4l0.2,0.2v2.3h0.1c1.5-1.8,3-2.8,4.7-2.8c1.9,0,3.2,1.4,3.2,3.4
			C165.3,47.9,164.3,49.2,162.7,49.2z"/>
		<path class="st1" d="M180.1,59.9c-2.3,0-3.3-0.9-4-2.3H176c-1.2,1.3-2.5,2.3-5.3,2.3c-2.4,0-4.3-1.7-4.3-4c0-3,1.7-4.1,3.5-4.7
			c2-0.8,4.8-1.4,6.1-2.2v-1.6c0-1.2-0.1-3.5-2.2-3.5c-0.9,0-1.4,0.4-1.8,0.7c0,0.5,0.5,1.4,0.5,2.3c0,0.8-0.9,2-2.8,2
			s-2.5-1.2-2.5-2.3c0-2.2,3.8-3.8,6.9-3.8c3.8,0,7,0.6,7,5.4c0,3.2-0.2,6.9-0.2,8c0,0.4,0.1,1.6,1.3,1.6c0.9,0,1.2-1.5,1.3-2.8h1.3
			C184.5,58.3,183,59.9,180.1,59.9z M171.7,55c0,1.8,0.8,2.5,1.9,2.5c1.2,0,1.8-0.6,2.3-1.3l0.1-5.7C173.6,51.4,171.7,52.2,171.7,55
			z"/>
		<path class="st1" d="M196.3,59.9c-2,0-3.2-0.5-4-1.1h-0.1c0,1.4,0,4.2,0,5.4c0,0.8,0.3,1.4,1,1.6c0.5,0.2,2,0.5,2.6,0.5v1.1h-11.4
			v-1.1c0.6,0,1.5-0.2,2-0.3c0.7-0.2,0.9-0.8,0.9-1.6c0-3.3,0-15.1,0-17.6c-0.1-0.7-0.4-1.4-0.9-1.8c-0.4-0.3-1.3-0.5-1.9-0.5v-1.1
			l7.6-0.4l0.2,0.2V45l0.1,0c0.8-0.9,2.6-2.3,4.7-2.3c4.1,0,7.1,3.5,7.1,8.7C204.1,56.4,200.3,59.9,196.3,59.9z M194.9,45
			c-1.3,0-2.1,0.6-2.8,1.5V56c0.3,1.1,1.1,2.5,2.9,2.5c2,0,3.5-2.4,3.5-6.9C198.6,48.3,197.6,45,194.9,45z"/>
		<path class="st1" d="M220.5,46.2c-2.4,5.5-4.5,11.1-5.7,13.8c-3,6.9-4.7,7.4-7.2,7.4c-1.2,0-3.2-0.8-3.2-3c0-1.2,0.9-2.6,2.5-2.6
			c1,0,2.4,0.5,2.4,2.2v1.1c1.9-0.4,3.6-3.7,4.1-5.1c-1.8-3.8-5.4-11.6-6.4-13.9c-0.4-0.9-1.5-1.6-2.5-1.8v-1.1h9.7v1.1
			c-0.8,0-2,0.2-2,0.8c0,0.1,0.1,0.4,0.2,0.7c0.7,1.6,2,4.5,3.5,7.8h0.2c1.1-2.6,1.6-4.1,2.8-7.1c0.1-0.2,0.2-0.7,0.2-1
			c0-0.8-1.9-1.2-2.4-1.3v-1.1h6.4v1C222.1,44.4,221.1,45,220.5,46.2z"/>
		<path class="st1" d="M228.3,51.6c-2.3,0-4.2-1.8-4.2-4.1c0-2.3,1.9-4.1,4.2-4.1c2.3,0,4.2,1.8,4.2,4.1
			C232.5,49.8,230.6,51.6,228.3,51.6z M228.3,43.8c-2.1,0-3.7,1.6-3.7,3.7c0,2.1,1.6,3.7,3.7,3.7c2.1,0,3.7-1.6,3.7-3.7
			C232,45.4,230.4,43.8,228.3,43.8z M229.3,49.6c-0.1-0.5-0.2-0.9-0.4-1.3c-0.2-0.5-0.5-0.8-1-0.8h0V49c0,0.1,0,0.2,0.2,0.3
			c0.1,0,0.4,0.1,0.5,0.1v0.3h-2.6v-0.3c0.2,0,0.4,0,0.5-0.1c0.1,0,0.2-0.1,0.2-0.3v-3.2c0-0.1,0-0.2-0.2-0.3
			c-0.1-0.1-0.3-0.1-0.5-0.1V45h2.4c1.1,0,1.8,0.3,1.8,1.1c0,0.7-0.6,1-1.3,1.2h0c0.5,0.1,0.9,0.3,1.1,0.9c0.1,0.3,0.3,0.7,0.3,0.7
			c0.1,0.2,0.2,0.3,0.3,0.3c0.1,0,0.2,0,0.3,0.1v0.3H229.3z M228.1,45.4h-0.2v1.8h0.1c0.6,0,1-0.3,1-1
			C229,45.6,228.7,45.4,228.1,45.4z"/>
	</g>
</g>
</svg>
